Coordinates
nRows=176
nColumns=2
inDegrees=yes
endheader
time	ankle_angle_r	
3.99974	  0.213623	
4.06224	  0.274658	
4.12474	  0.259399	
4.18723	  0.198364	
4.24973	  0.213623	
4.31222	  0.198364	
4.37472	  0.198364	
4.43722	  0.274658	
4.49971	  0.228882	
4.56221	  0.289917	
4.6247	  0.183105	
4.6872	  0.198364	
4.7497	  0.198364	
4.81219	  0.198364	
4.87469	  0.244141	
4.93718	  0.259399	
4.99968	  0.228882	
5.06218	  0.274658	
5.12467	  0.167847	
5.18717	  0.167847	
5.24966	  0.213623	
5.31216	  0.183105	
5.37466	  0.274658	
5.43715	  0.198364	
5.49965	  0.244141	
5.56214	  0.259399	
5.62464	  0.137329	
5.68714	  0.137329	
5.74963	  0.198364	
5.81213	  0.091553	
5.87462	  0.274658	
5.93712	  0.213623	
5.99962	  0.259399	
6.06211	  0.320435	
6.12461	  0.183105	
6.1871	  0.183105	
6.2496	  0.198364	
6.3121	  0.152588	
6.37459	  0.335693	
6.43709	  0.259399	
6.49958	  0.289917	
6.56208	  0.350952	
6.62458	  0.213623	
6.68707	  0.244141	
6.74957	  0.244141	
6.81206	  0.213623	
6.87456	  0.335693	
6.93706	  0.274658	
6.99955	  0.320435	
7.06205	  0.274658	
7.12454	  0.152588	
7.18704	  0.228882	
7.24954	  0.183105	
7.31203	  0.183105	
7.37453	  0.305176	
7.43702	  0.228882	
7.49952	  0.228882	
7.56202	  0.274658	
7.62451	  0.167847	
7.68701	  0.183105	
7.7495	  0.183105	
7.812	  0.183105	
7.8745	  0.274658	
7.93699	  0.167847	
7.99949	  0.274658	
8.06198	  0.213623	
8.12448	  0.183105	
8.18698	  0.228882	
8.24947	  0.167847	
8.31197	  0.244141	
8.37446	  0.274658	
8.43696	  0.198364	
8.49946	  0.320435	
8.56195	  0.152588	
8.62445	  0.213623	
8.68694	  0.198364	
8.74944	  0.183105	
8.81194	  0.335693	
8.87443	  0.259399	
8.93693	  0.244141	
8.99942	  0.259399	
9.06192	  0.137329	
9.12442	  0.167847	
9.18691	  0.198364	
9.24941	  0.213623	
9.3119	  0.305176	
9.3744	  0.244141	
9.4369	  0.259399	
9.49939	  0.320435	
9.56189	  0.137329	
9.62438	  0.213623	
9.68688	  0.198364	
9.74938	  0.137329	
9.81187	  0.305176	
9.87437	  0.228882	
9.93686	  0.274658	
9.99936	  0.289917	
10.0619	  0.152588	
10.1244	  0.244141	
10.1868	  0.167847	
10.2493	  0.091553	
10.3118	  0.289917	
10.3743	  0.198364	
10.4368	  0.259399	
10.4993	  0.213623	
10.5618	  0.152588	
10.6243	  0.228882	
10.6868	  0.183105	
10.7493	  0.152588	
10.8118	  0.320435	
10.8743	  0.228882	
10.9368	  0.305176	
10.9993	  0.259399	
11.0618	  0.167847	
11.1243	  0.274658	
11.1868	  0.198364	
11.2493	  0.213623	
11.3118	  0.259399	
11.3743	  0.228882	
11.4368	  0.259399	
11.4993	  0.213623	
11.5618	  0.152588	
11.6243	  0.183105	
11.6868	  0.213623	
11.7492	  0.274658	
11.8117	  0.274658	
11.8742	  0.228882	
11.9367	  0.289917	
11.9992	  0.152588	
12.0617	  0.183105	
12.1242	  0.183105	
12.1867	  0.152588	
12.2492	  0.244141	
12.3117	  0.228882	
12.3742	  0.198364	
12.4367	  0.274658	
12.4992	  0.183105	
12.5617	  0.213623	
12.6242	  0.244141	
12.6867	  0.137329	
12.7492	  0.305176	
12.8117	  0.274658	
12.8742	  0.213623	
12.9367	  0.289917	
12.9992	  0.106812	
13.0617	  0.183105	
13.1242	  0.183105	
13.1867	  0.152588	
13.2492	  0.366211	
13.3116	  0.274658	
13.3741	  0.289917	
13.4366	  0.289917	
13.4991	  0.106812	
13.5616	  0.198364	
13.6241	  0.183105	
13.6866	  0.183105	
13.7491	  0.305176	
13.8116	  0.198364	
13.8741	  0.289917	
13.9366	  0.274658	
13.9991	  0.152588	
14.0616	  0.228882	
14.1241	  0.183105	
14.1866	  0.167847	
14.2491	  0.320435	
14.3116	  0.198364	
14.3741	  0.228882	
14.4366	  0.289917	
14.4991	  0.137329	
14.5616	  0.228882	
14.6241	  0.183105	
14.6866	  0.167847	
14.7491	  0.289917	
14.8116	  0.213623	
14.874	  0.259399	
14.9365	  0.244141	
